# xmcd CD database file
#
# Track frame offsets:
#	150
#	18277
#	40545
#	52955
#	73597
#	95979
#	118850
#	146262
#	166987
#	195417
#	224375
#
# Disc length: 3255 seconds
#
# Revision: 0
# Processed by: cddbd v1.5.1PL2 Copyright (c) Steve Scherf et al.
# Submitted via: CDex 1.51
#
DISCID=950cb50b
DTITLE=早川 義夫 - 恥ずかしい僕の人生
DYEAR=1997
DGENRE=Rock
TTITLE0=敵は遠くに
TTITLE1=嫉妬
TTITLE2=君でなくちゃだめさ
TTITLE3=犬のように
TTITLE4=パパ
TTITLE5=純愛
TTITLE6=グッバイ
TTITLE7=埋葬
TTITLE8=からっぽの世界
TTITLE9=恥ずかしい僕の人生
TTITLE10=アメンボの歌
EXTD=YEAR: 1997
EXTT0=
EXTT1=
EXTT2=
EXTT3=
EXTT4=
EXTT5=
EXTT6=
EXTT7=
EXTT8=
EXTT9=
EXTT10=
PLAYORDER=
